PathFileType	4	(X/Y/Z)	D:\TRACE\spot_10-12-23\spot_arm_body_motion_3_4-v60.trc
DataRate	CameraRate	NumFrames	NumMarkers	Units	OrigDataRate	OrigDataStartFrame	OrigNumFrames
100.00	100.00	      38	9	mm	100.00	2626	      7000
Frame#	Time	front left toe			Front right toe			aft left toe			aft right toe			Arm			FL body			FR body			AL Body			AR Body			
		X1	Y1	Z1	X2	Y2	Z2	X3	Y3	Z3	X4	Y4	Z4	X5	Y5	Z5	X6	Y6	Z6	X7	Y7	Z7	X8	Y8	Z8	X9	Y9	Z9	

2626	26.250	-155.01927	134.53642	-447.02530	249.56114	10.19941	-460.04504	-133.46539	20.60461	155.11177	241.50230	17.51431	177.52853	74.85100	793.54163	-755.73419	-39.29971	586.59735	-469.89407	112.80609	592.78467	-474.05362	-19.05170	560.18427	413.62817	131.19653	559.46008	411.98901	
2627	26.260	-151.76700	132.32303	-449.97699	249.38951	10.03565	-460.06567	-134.16493	20.96871	154.86826	241.25592	17.73794	177.68614	77.71006	791.64313	-757.53497	-40.27279	586.24182	-470.15887	111.99400	592.42139	-474.08649	-19.99291	560.05841	413.52698	130.23009	559.62579	412.05582	
2628	26.270	-150.16084	126.49585	-451.62540	249.58694	9.73477	-459.89774	-134.77617	20.98750	154.76845	240.73599	17.41763	177.12521	78.11102	790.39691	-758.69934	-40.65761	585.48309	-470.26682	111.33939	591.80719	-474.18439	-21.39783	560.02173	413.45755	128.63951	559.91046	412.02948	
2629	26.280	-151.41168	116.11414	-452.26437	249.82578	9.62915	-459.71350	-135.15559	20.82805	154.64847	240.75507	17.77098	177.37433	78.93244	789.63312	-760.10321	-41.14475	584.66449	-470.76685	111.25880	591.20038	-475.10626	-22.83999	560.29492	413.00311	127.29092	560.13147	411.97226	
2630	26.290	-153.94270	103.50466	-452.91635	249.88031	9.43348	-459.59000	-135.62346	20.78226	154.63942	240.40254	17.97980	177.70193	78.76107	789.41559	-760.74982	-41.45930	583.71960	-471.23349	110.75020	590.13629	-474.50287	-24.79256	560.52142	412.47461	125.42547	560.35754	411.47876	
2631	26.300	-155.94127	92.09645	-452.74796	250.03587	9.18270	-459.48886	-136.22565	20.60763	154.59177	239.78979	18.34945	177.54378	77.86112	789.59149	-761.24091	-42.08952	583.04736	-471.90900	110.31482	589.19409	-475.32193	-26.56831	560.52301	411.87384	123.69064	560.45325	411.33972	
2632	26.310	-158.36240	81.56120	-451.33920	250.07616	9.05162	-459.28659	-136.56033	20.47969	154.40953	239.44157	18.32730	177.50140	76.42941	789.86700	-761.38007	-42.69805	582.24878	-472.50836	109.55383	588.29388	-475.60098	-28.07807	560.32507	411.42496	122.03091	559.96167	411.18109	
2633	26.320	-161.55916	70.49789	-448.94598	249.85916	9.03839	-459.34457	-136.69807	20.33228	154.43892	239.24100	18.40436	177.46097	75.16477	790.16956	-761.39917	-43.46844	581.83112	-473.06146	108.79708	587.72559	-476.22076	-29.90392	560.21991	410.93683	120.26176	559.87762	410.26294	
2634	26.330	-164.49464	60.31005	-446.95511	249.43178	9.23339	-459.36554	-136.80376	20.33793	154.43149	239.06531	18.43518	177.47214	74.20058	790.79675	-761.35144	-44.86636	581.19714	-473.76828	107.32714	587.54871	-476.81454	-31.78469	560.07532	409.94662	118.97803	559.84015	409.99478	
2635	26.340	-167.99545	50.11283	-445.00229	249.08646	9.50101	-459.54865	-136.87250	20.40291	154.38174	239.00708	18.40263	177.47060	73.15269	791.50079	-761.10071	-46.19510	580.86902	-474.21243	105.89577	587.08459	-477.54428	-32.53254	560.04785	409.61417	117.83009	559.67786	409.21213	
2636	26.350	-171.36230	40.14784	-443.75934	248.83714	9.58002	-459.68381	-136.97867	20.44180	154.43579	238.88713	18.40886	177.41936	72.24315	791.78754	-760.68866	-47.94661	580.43634	-474.49957	104.51815	586.42572	-477.33920	-33.94071	559.65277	409.29037	116.26339	559.35376	408.63162	
2637	26.360	-174.72018	30.08065	-442.83234	250.67586	11.66892	-459.02020	-137.13200	20.44163	154.49965	238.86378	18.38796	177.40909	71.62952	792.41296	-760.27203	-50.20698	580.53839	-475.16739	102.20046	587.02563	-478.08740	-35.06801	559.52747	408.77289	115.14944	559.33740	407.99976	
2638	26.370	-177.41972	19.97245	-441.89151	249.90034	11.68639	-459.15683	-137.24435	20.54783	154.59906	238.80952	18.33263	177.32712	71.71889	793.06232	-759.92084	-52.42311	580.30225	-475.55002	99.51855	587.11334	-478.96945	-36.22095	558.99921	408.25677	114.04457	559.28827	407.80624	
2639	26.380	-179.20297	9.70670	-440.70291	249.13951	11.91200	-459.58182	-137.29185	20.68394	154.64915	238.85921	18.29923	177.26186	71.87956	793.38489	-759.47412	-54.90342	580.55243	-475.98544	97.10245	587.54376	-479.47849	-38.22981	558.21173	407.66254	112.41384	558.95691	406.73938	
2640	26.390	-180.44461	7.50453	-444.18442	248.67152	12.14079	-459.70023	-137.34955	20.78031	154.71809	238.68950	18.27803	177.25754	71.82686	793.73187	-759.00024	-57.52502	580.87103	-476.51324	94.30511	588.31592	-480.65552	-39.20634	558.39752	407.34042	110.95512	558.78204	406.22839	
2641	26.400	-181.55803	7.19460	-441.95544	248.11810	12.35676	-459.70886	-137.60306	21.06284	154.46329	238.74110	18.02498	177.16594	71.97444	793.94330	-758.62585	-60.00325	582.20148	-476.93338	91.94102	589.21283	-480.78537	-41.34846	557.66998	406.77777	108.65769	558.22467	405.39594	
2642	26.410	-182.18584	7.43428	-440.49445	246.96375	13.91947	-459.51434	-138.50880	18.94734	154.63313	238.27307	19.09598	176.43211	72.09650	794.27899	-758.20349	-62.81573	583.76233	-477.45563	89.29687	590.34174	-481.42203	-43.08332	557.69952	406.09457	107.47132	557.78992	405.02884	
2643	26.420	-182.01436	6.69593	-441.01114	244.43317	12.33118	-460.01801	-139.92410	18.32820	154.92281	235.89551	20.93495	176.65945	72.13111	794.92078	-757.57324	-65.17637	585.10638	-477.89618	86.88351	591.22980	-482.47083	-44.66844	558.08679	405.63446	105.36321	557.47498	404.12161	
2644	26.430	-182.46884	6.85223	-441.06067	243.57468	11.91907	-460.97504	-139.83167	18.63039	154.33656	235.88811	20.75373	176.79065	72.37221	795.32886	-757.44714	-67.06382	586.16907	-478.53375	85.03677	591.84772	-482.62949	-47.09226	558.59705	404.88495	103.16692	557.65619	403.27960	
2645	26.440	-181.94859	6.07951	-441.69473	244.08205	12.02499	-460.25430	-139.73146	18.73595	154.47649	236.43819	19.39707	176.51718	72.97070	795.39368	-757.16199	-68.69106	587.47552	-479.22635	83.45338	592.48480	-483.39157	-49.03134	559.19226	404.14365	101.04017	557.78754	402.78937	
2646	26.450	-182.30209	6.13550	-441.77014	243.88008	11.75358	-460.75443	-140.16644	18.43427	154.28444	235.83237	20.20316	176.53946	73.45873	795.09576	-757.08209	-70.06272	588.78973	-479.96176	82.22813	593.13373	-483.70303	-50.93359	560.13373	403.80353	99.04795	558.05591	402.15778	
2647	26.460	-182.19269	5.96508	-442.22977	243.98714	11.70038	-460.63400	-140.43228	18.49613	154.19437	235.40358	20.85464	176.46518	73.55738	794.85199	-757.46600	-71.33445	589.79297	-480.76956	80.96113	593.84167	-484.60846	-52.91420	561.20953	403.23532	97.43865	558.70538	401.72739	
2648	26.470	-182.09250	5.91185	-442.34003	244.02974	11.66516	-460.65836	-140.40862	18.48343	153.99913	235.41377	20.92266	176.58224	73.91232	794.89325	-757.65491	-72.28545	590.38348	-481.65540	80.40299	594.29559	-484.40857	-54.73973	561.54785	401.94730	95.28262	559.42017	400.78159	
2649	26.480	-181.65828	5.18236	-442.32248	244.30536	11.62873	-460.58435	-140.49678	18.43568	153.83044	235.50523	20.93137	176.66479	73.95654	794.88708	-757.87360	-72.87452	590.87134	-482.30228	79.22527	595.28973	-485.88925	-56.22343	562.35175	401.20163	93.84476	559.97021	400.46039	
2650	26.490	-182.35681	5.38289	-442.48547	244.26680	11.53029	-460.68222	-140.66025	18.30902	153.70796	235.33366	20.83944	176.43874	73.38354	794.80487	-758.44739	-73.72192	591.40826	-483.26840	78.62222	596.00916	-486.92313	-57.65864	562.80634	400.36710	92.27326	560.81036	399.65561	
2651	26.500	-181.76295	4.79031	-442.64407	244.25076	11.49773	-460.74155	-140.64659	18.23030	153.52965	235.30048	21.04365	176.42957	72.78589	794.95258	-758.80823	-74.20184	591.67462	-484.04831	78.11665	596.14844	-487.35953	-59.19429	563.47461	399.54489	90.92826	561.66449	398.81378	
2652	26.510	-181.89326	4.71826	-442.74875	244.21049	11.46941	-460.80948	-140.72777	18.30292	153.37799	235.22200	21.10038	176.33926	72.15820	795.09015	-759.15021	-74.75631	592.00574	-484.89984	77.53325	596.53442	-488.03705	-60.04688	564.05389	399.11105	90.39965	562.25323	398.28268	
2653	26.520	-182.33498	4.79754	-442.95755	244.27034	11.28510	-460.89706	-140.78279	18.40750	153.24846	235.17847	21.13503	176.17000	70.69487	795.13153	-759.36475	-75.41540	592.16687	-485.77121	76.80896	596.89215	-489.03488	-60.98747	564.73950	397.85825	89.68696	563.27417	397.81326	
2654	26.530	-181.85074	4.25551	-443.00681	244.24272	11.01382	-461.11691	-140.63554	18.43517	153.11508	235.21623	21.15187	176.04527	70.45989	795.00256	-759.87079	-75.91448	592.20148	-486.52591	76.40366	597.08795	-489.72754	-61.32902	565.44995	397.31326	88.74276	563.90735	396.57080	
2655	26.540	-181.88908	3.95755	-443.11642	244.10344	10.96495	-461.34534	-140.55063	18.45089	153.04446	235.34982	21.14901	175.84375	69.53820	794.99976	-760.08557	-76.43584	592.09332	-487.34238	75.81050	597.25409	-491.03769	-61.62982	566.08270	396.04599	88.72855	564.58276	395.51385	
2656	26.550	-182.42302	3.92243	-443.26584	244.01422	10.75694	-461.57495	-140.41974	18.47301	152.94258	235.38042	21.07688	175.61453	68.70720	795.01007	-760.09680	-77.19950	592.14349	-488.27750	75.33563	597.25940	-491.64325	-61.72432	566.76062	395.66357	88.29383	565.45526	394.64685	
2657	26.560	-182.14523	3.40798	-443.27130	243.96490	10.44325	-461.82013	-140.32042	18.62297	152.84274	235.40121	20.92850	175.40422	68.56780	795.01355	-760.24518	-77.78378	592.18182	-489.07797	74.35587	597.41968	-492.88217	-61.74437	567.39850	394.96201	88.62917	565.98053	393.89877	
2658	26.570	-182.27814	3.13053	-443.27252	243.23351	10.23642	-462.63614	-140.31427	18.78641	152.75252	235.30777	20.80734	174.97757	68.65208	794.93750	-760.31543	-78.31557	592.07739	-489.81827	73.63976	596.99713	-493.29889	-61.49547	568.07684	393.71292	89.02429	566.68237	392.98682	
2659	26.580	-182.75389	3.16804	-443.27103	243.13002	10.13538	-462.78860	-140.33142	19.02919	152.61606	235.56624	20.87188	174.88438	68.99472	794.83142	-760.43890	-79.07896	592.19238	-490.70844	72.95854	597.49347	-494.88202	-61.33772	568.85889	393.34842	88.88419	567.44043	392.03619	
2660	26.590	-182.76295	2.88569	-443.28412	243.21579	9.90852	-462.53729	-140.24809	19.07795	152.53233	235.57048	20.86517	174.74977	69.30985	794.72638	-760.47131	-79.51354	591.94507	-491.41562	72.95045	597.15375	-494.90009	-61.29853	569.19586	392.20313	89.14291	567.95685	390.93658	
2661	26.600	-182.75418	2.70047	-443.35178	243.22420	9.66212	-462.69061	-140.16774	19.06534	152.38438	235.72060	20.86118	174.63806	69.92029	794.56396	-760.65894	-79.75798	591.84607	-492.10419	72.20923	597.08893	-496.31030	-61.21643	569.83197	391.43045	89.08747	568.47333	389.94016	
2662	26.610	-182.16281	2.22311	-443.43906	243.44640	9.44351	-462.79617	-139.94370	19.02902	152.23973	235.93449	20.90060	174.50783	70.43667	794.45496	-760.68256	-79.87589	591.85229	-493.28754	71.99425	597.29956	-497.08118	-61.21178	570.27466	390.44485	89.04511	569.10638	389.29785	
2663	26.620	-182.40114	2.41807	-443.65390	243.95538	9.36771	-462.71729	-139.75153	19.16648	152.16464	236.12451	20.92451	174.36479	70.74190	794.41162	-760.56128	-79.69289	591.88275	-493.91504	72.57217	597.20923	-497.73166	-61.27246	570.76843	389.72696	89.15990	569.58197	388.37314	
